<svg display="block" role="presentation" viewBox="0 0 56 40" xmlns="http://www.w3.org/2000/svg"><path d="M 56 28.574 C 56 31.74 54.921 34.432 52.732 36.665 C 50.559 38.883 47.906 40 44.803 40 L 11.527 40 C 8.514 40 5.546 38.899 3.387 36.757 C 2.293 35.671 1.484 34.478 0.914 33.163 L 44.653 33.163 C 45.627 33.163 46.617 32.78 47.276 32.046 C 47.861 31.388 48.161 30.608 48.161 29.721 L 48.161 20.466 C 48.161 16.046 51.668 12.466 56 12.466 Z M 44.803 0 C 47.906 0 50.544 1.101 52.733 3.335 C 53.767 4.39 54.561 5.568 55.101 6.838 L 11.212 6.838 C 10.298 6.838 9.518 7.189 8.844 7.862 C 8.169 8.535 7.839 9.346 7.839 10.279 L 7.839 19.534 C 7.839 23.954 4.332 27.534 0 27.534 L 0.015 27.518 L 0.015 11.426 C 0.015 8.138 1.199 5.369 3.552 3.09 C 5.666 1.055 8.499 0 11.407 0 Z" fill="rgb(255, 255, 255)" height="40.0000004693602px" id="JNsUwfViG" width="56px"/></svg>
